# xmcd CD database file
#
# Track frame offsets:
#	150
#	19120
#	44777
#	78617
#	123205
#	151112
#	180035
#	204117
#	240055
#	271990
#	293070
#
# Disc length: 4169 seconds
#
# Revision: 0
# Processed by: cddbd v1.5.2PL0 Copyright (c) Steve Scherf et al.
# Submitted via: CDex 1.50
#
DISCID=7e10470b
DTITLE=Kenny Barron - Spirit Song
DYEAR=2000
DGENRE=Jazz
TTITLE0=The Pelican
TTITLE1=Spirit Song
TTITLE2=Um Beijo
TTITLE3=Passion Flower
TTITLE4=Passion Dance
TTITLE5=Sonja Braga
TTITLE6=The Question is
TTITLE7=The Wizard
TTITLE8=Cook's Bay
TTITLE9=And Then Again
TTITLE10=Passion Dance - Alt Take
EXTD=YEAR: 2000
EXTT0=
EXTT1=
EXTT2=
EXTT3=
EXTT4=
EXTT5=
EXTT6=
EXTT7=
EXTT8=
EXTT9=
EXTT10=
PLAYORDER=
